<svg width="22" height="22" viewBox="0 0 22 22" fill="none" xmlns="http://www.w3.org/2000/svg">
<path d="M10.9955 15.2871V12.9615" stroke="#222222" stroke-width="1.3" stroke-linecap="round" stroke-linejoin="round"/>
<path fill-rule="evenodd" clip-rule="evenodd" d="M16.6741 4.88602C18.2232 4.88602 19.4699 6.14185 19.4699 7.69102V10.8443C17.2149 12.1643 14.2357 12.9619 10.9907 12.9619C7.74574 12.9619 4.77574 12.1643 2.52074 10.8443V7.68185C2.52074 6.13268 3.77657 4.88602 5.32574 4.88602H16.6741Z" stroke="#222222" stroke-width="1.3" stroke-linecap="round" stroke-linejoin="round"/>
<path d="M14.2038 4.88199V4.54649C14.2038 3.42815 13.2963 2.52065 12.178 2.52065H9.813C8.69467 2.52065 7.78717 3.42815 7.78717 4.54649V4.88199" stroke="#222222" stroke-width="1.3" stroke-linecap="round" stroke-linejoin="round"/>
<path d="M2.5432 14.1927L2.71645 16.4927C2.83378 18.0427 4.12536 19.2408 5.67911 19.2408H16.3115C17.8653 19.2408 19.1569 18.0427 19.2742 16.4927L19.4474 14.1927" stroke="#222222" stroke-width="1.3" stroke-linecap="round" stroke-linejoin="round"/>
</svg>
