<svg width="22" height="22" viewBox="0 0 22 22" fill="none" xmlns="http://www.w3.org/2000/svg">
<path fill-rule="evenodd" clip-rule="evenodd" d="M2.29337 11.0001C2.29081 12.1273 2.24052 13.6647 2.93787 14.2394C3.58833 14.7755 4.04612 14.6374 5.23366 14.7245C6.42206 14.8125 8.93013 18.3058 10.8636 17.2008C11.861 16.4165 11.9352 14.7722 11.9352 11.0001C11.9352 7.22806 11.861 5.58374 10.8636 4.7994C8.93013 3.69359 6.42206 7.18777 5.23366 7.27574C4.04612 7.36289 3.58833 7.22477 2.93787 7.76082C2.24052 8.3355 2.29081 9.87294 2.29337 11.0001Z" stroke="#222222" stroke-width="1.3" stroke-linecap="round" stroke-linejoin="round"/>
<path d="M17.9523 5.41199C20.2899 8.77709 20.2975 13.2159 17.9523 16.5876" stroke="#222222" stroke-width="1.3" stroke-linecap="round" stroke-linejoin="round"/>
<path d="M15.6579 7.62154C16.8599 9.72134 16.8599 12.2857 15.6579 14.3789" stroke="#222222" stroke-width="1.3" stroke-linecap="round" stroke-linejoin="round"/>
</svg>
