<svg width="44" height="44" viewBox="0 0 44 44" fill="none" xmlns="http://www.w3.org/2000/svg">
<circle cx="22" cy="22" r="22" fill="#24AC9C"/>
<path d="M22.0004 7.33203C18.1577 7.33203 15.0337 10.456 15.0337 14.2987C15.0337 18.068 17.9817 21.1187 21.8244 21.2507C21.9417 21.236 22.059 21.236 22.147 21.2507C22.1764 21.2507 22.191 21.2507 22.2204 21.2507C22.235 21.2507 22.235 21.2507 22.2497 21.2507C26.0044 21.1187 28.9524 18.068 28.967 14.2987C28.967 10.456 25.843 7.33203 22.0004 7.33203Z" fill="#25F0D9"/>
<path d="M29.4513 25.1524C25.3593 22.4244 18.686 22.4244 14.5646 25.1524C12.702 26.3991 11.6753 28.0858 11.6753 29.8898C11.6753 31.6938 12.702 33.3658 14.55 34.5978C16.6033 35.9764 19.302 36.6658 22.0006 36.6658C24.6993 36.6658 27.398 35.9764 29.4513 34.5978C31.2993 33.3511 32.326 31.6791 32.326 29.8604C32.3113 28.0564 31.2993 26.3844 29.4513 25.1524Z" fill="#25F0D9"/>
</svg>
