<svg width="91" height="85" viewBox="0 0 91 85" fill="none" xmlns="http://www.w3.org/2000/svg">
<path d="M56.951 7.89812C49.3676 6.8002 41.6327 6.8002 34.0494 7.89812C30.9402 8.35854 28.6652 10.8377 28.6652 13.7418V26.7752H14.7119C11.6027 26.7752 8.94855 28.9002 8.45563 31.8044C7.28021 38.8877 7.28021 46.1127 8.45563 53.196C8.94855 56.1002 11.6027 58.2252 14.7119 58.2252H28.6652V50.3627C28.6652 46.0064 32.4189 42.5002 37.0827 42.5002H53.9177C58.5814 42.5002 62.3352 38.9585 62.3352 34.6377V13.7418C62.3352 10.8377 60.0601 8.35854 56.951 7.89812ZM39.168 19.7627C37.6135 19.7627 36.0968 18.3814 36.0968 16.8939C36.0968 15.4064 37.5755 14.0606 39.168 14.0606C39.8885 14.0606 40.7606 14.3794 41.2915 14.8398C41.8602 15.3356 42.2394 16.1856 42.2394 16.8939C42.2394 18.3814 40.7605 19.7627 39.168 19.7627Z" fill="#255DF0"/>
<path opacity="0.4" d="M82.5448 31.8044C82.0519 28.9002 79.3977 26.7752 76.2885 26.7752H62.3352V34.6377C62.3352 38.9585 58.5815 42.5002 53.9177 42.5002H37.0827C32.419 42.5002 28.6652 46.0065 28.6652 50.3627V71.2586C28.6652 74.1627 30.9403 76.6419 34.0494 77.1023C41.6328 78.2002 49.3677 78.2002 56.951 77.1023C60.0602 76.6419 62.3352 74.1627 62.3352 71.2586V58.2252H76.2885C79.3977 58.2252 82.0519 56.1002 82.5448 53.196C83.7202 46.1127 83.7202 38.8877 82.5448 31.8044ZM51.8324 70.9398C50.2778 70.9398 48.761 69.5586 48.761 68.0711C48.761 66.5836 50.2399 65.2023 51.8324 65.2023C52.5528 65.2023 53.4249 65.521 53.9557 65.9815C54.5244 66.4773 54.9036 67.3273 54.9036 68.0356C54.8657 69.5585 53.3869 70.9398 51.8324 70.9398Z" fill="#255DF0"/>
</svg>
