<svg width="24" height="24" viewBox="0 0 24 24" fill="none" xmlns="http://www.w3.org/2000/svg">
<path d="M19.5002 12.4998C18.8624 12.4 18.5914 12.9149 18.5002 13.4995C18.318 14.7401 17.9114 15.6444 17.0002 16.5C14.9046 18.4678 10.354 18.5258 8.00024 17L9.8893 17.1181C10.5119 17.1181 11.0282 16.6332 11.0282 16.0486C11.0282 15.4639 10.5119 14.9791 9.8893 14.9791H5.83472C5.21211 14.9791 4.6958 15.4639 4.6958 16.0486V19.8559C4.6958 20.4405 4.87763 21 5.50024 21C6.12285 21 6.50024 20.4248 6.50024 19.8402V18.4998C8.0188 19.6548 10.3296 20.2836 12.1823 20.2836C14.3083 20.2836 16.4343 19.5279 18.0591 18.0021C19.3195 16.8186 20.1244 15.2928 20.3826 13.5816C20.4889 12.9685 20.1229 12.5711 19.5002 12.4998Z" fill="#6592F4"/>
<path d="M4.99987 12.5C5.83265 12.3568 5.79674 12.0546 5.98806 11.5C6.17028 10.2594 6.57692 8.85557 7.48806 8C9.58367 6.03218 13.6343 6.47423 15.9881 8H14.4881C13.8654 8 13.3392 8.2921 13.3392 8.87674C13.3392 9.46138 13.8654 9.5 14.4881 9.5H18.5426C19.1652 9.5 19.4881 9.46138 19.4881 8.87674V6.9731V5.06947C19.4881 4.48482 19.1552 4 18.5326 4C17.91 4 17.4881 4.48482 17.4881 5.06947V6.5C14.2232 4.01884 9.34538 4.08554 6.32344 6.92319C5.06304 8.10673 4 10.6872 4 11.3436C4 12 4.37726 12.4144 4.99987 12.5C4.71845 12.4613 4.64726 12.4358 4.99987 12.5Z" fill="#6592F4"/>
</svg>
