<svg width="22" height="22" viewBox="0 0 22 22" fill="none" xmlns="http://www.w3.org/2000/svg">
<path d="M19.3141 4.79384C17.8383 4.64717 16.3625 4.53717 14.8775 4.45467V4.44551L14.6758 3.25384C14.5383 2.41051 14.3366 1.14551 12.1916 1.14551H9.78998C7.65415 1.14551 7.45248 2.35551 7.30581 3.24467L7.11332 4.41801C6.26082 4.47301 5.40831 4.52801 4.55581 4.61051L2.68582 4.79384C2.30082 4.83051 2.02581 5.16967 2.06248 5.54551C2.09915 5.92134 2.42915 6.19634 2.81415 6.15967L4.68415 5.97634C9.48748 5.49967 14.3275 5.68301 19.1858 6.16884C19.2133 6.16884 19.2316 6.16884 19.2591 6.16884C19.6075 6.16884 19.91 5.90301 19.9466 5.54551C19.9741 5.16967 19.6991 4.83051 19.3141 4.79384Z" fill="#F46565"/>
<path d="M17.6275 7.46199C17.4075 7.23283 17.105 7.10449 16.7933 7.10449H5.20664C4.89497 7.10449 4.58331 7.23283 4.37247 7.46199C4.16164 7.69116 4.04247 8.00283 4.06081 8.32366L4.62914 17.7287C4.72997 19.122 4.85831 20.8637 8.05747 20.8637H13.9425C17.1416 20.8637 17.27 19.1312 17.3708 17.7287L17.9391 8.33283C17.9575 8.00283 17.8383 7.69116 17.6275 7.46199Z" fill="#E6D0D0"/>
<path fill-rule="evenodd" clip-rule="evenodd" d="M8.78162 15.583C8.78162 15.2033 9.08942 14.8955 9.46912 14.8955H12.5216C12.9013 14.8955 13.2091 15.2033 13.2091 15.583C13.2091 15.9627 12.9013 16.2705 12.5216 16.2705H9.46912C9.08942 16.2705 8.78162 15.9627 8.78162 15.583Z" fill="#F46565"/>
<path fill-rule="evenodd" clip-rule="evenodd" d="M8.02087 11.917C8.02087 11.5373 8.32868 11.2295 8.70837 11.2295H13.2917C13.6714 11.2295 13.9792 11.5373 13.9792 11.917C13.9792 12.2967 13.6714 12.6045 13.2917 12.6045H8.70837C8.32868 12.6045 8.02087 12.2967 8.02087 11.917Z" fill="#F46565"/>
</svg>
