<svg width="19" height="20" viewBox="0 0 19 20" fill="none" xmlns="http://www.w3.org/2000/svg">
<path d="M14.1855 11.8367C13.9804 12.0355 13.8862 12.3228 13.9329 12.6047L14.6367 16.4997C14.6961 16.8298 14.5568 17.1639 14.2805 17.3547C14.0097 17.5526 13.6495 17.5763 13.3542 17.418L9.84794 15.5892C9.72602 15.5243 9.59065 15.4895 9.45211 15.4855H9.23757C9.16315 15.4966 9.09032 15.5204 9.02382 15.5568L5.51673 17.3942C5.34336 17.4813 5.14702 17.5122 4.95465 17.4813C4.48598 17.3927 4.17327 16.9462 4.25007 16.4751L4.95465 12.5801C5.00136 12.2959 4.90715 12.007 4.70211 11.8051L1.8434 9.03425C1.60432 8.80229 1.52119 8.45396 1.63044 8.13967C1.73652 7.82616 2.00727 7.59737 2.33423 7.54592L6.26882 6.97512C6.56807 6.94425 6.8309 6.76217 6.96548 6.493L8.69923 2.93841C8.7404 2.85925 8.79344 2.78641 8.85757 2.72466L8.92881 2.66925C8.96602 2.62808 9.00877 2.59404 9.05627 2.56633L9.14257 2.53466L9.27715 2.47925H9.61044C9.90811 2.51012 10.1701 2.68825 10.3071 2.95425L12.0638 6.493C12.1905 6.75187 12.4367 6.93158 12.7209 6.97512L16.6555 7.54592C16.988 7.59341 17.2659 7.823 17.3759 8.13967C17.4796 8.45712 17.3901 8.80546 17.1463 9.03425L14.1855 11.8367Z" fill="#5984F3"/>
</svg>
